<?xml version="1.0" encoding="UTF-8" standalone="no"?>
<!DOCTYPE svg PUBLIC "-//W3C//DTD SVG 1.1//EN"
 "http://www.w3.org/Graphics/SVG/1.1/DTD/svg11.dtd">
<!-- Generated by graphviz version 2.43.0 (0)
 -->
<!-- Title: Taint014 Pages: 1 -->
<svg width="2920pt" height="457pt"
 viewBox="0.00 0.00 2920.00 457.00" xmlns="http://www.w3.org/2000/svg" xmlns:xlink="http://www.w3.org/1999/xlink">
<g id="graph0" class="graph" transform="scale(1 1) rotate(0) translate(36 421)">
<title>Taint014</title>
<polygon fill="#1a1b26" stroke="transparent" points="-36,36 -36,-421 2884,-421 2884,36 -36,36"/>
<text text-anchor="middle" x="154" y="-7.8" font-family="JetBrains Mono" font-size="14.00" fill="white">014 — Taint&#45;Informed Oracle Middlewares</text>
<g id="clust1" class="cluster">
<title>cluster_middlewares</title>
<polygon fill="#1a1b26" stroke="#3b4261" stroke-dasharray="5,2" points="8,-125 8,-377 1488,-377 1488,-125 8,-125"/>
<text text-anchor="middle" x="168" y="-361.8" font-family="JetBrains Mono" font-size="14.00" fill="#a9b1d6">Six Inline Middlewares (opcode&#45;level hooks)</text>
</g>
<g id="clust2" class="cluster">
<title>cluster_flags</title>
<polygon fill="#1a1b26" stroke="#3b4261" stroke-dasharray="5,2" points="932,-31 932,-106 2840,-106 2840,-31 932,-31"/>
<text text-anchor="middle" x="1052" y="-90.8" font-family="JetBrains Mono" font-size="14.00" fill="#a9b1d6">Static Flags (write&#45;only verdicts)</text>
</g>
<g id="clust3" class="cluster">
<title>cluster_deps</title>
<polygon fill="#1a1b26" stroke="#3b4261" stroke-dasharray="5,2" points="1496,-147.5 1496,-224.5 1851,-224.5 1851,-147.5 1496,-147.5"/>
<text text-anchor="middle" x="1553.5" y="-209.3" font-family="JetBrains Mono" font-size="14.00" fill="#a9b1d6">Dependencies</text>
</g>
<!-- return_taint -->
<g id="node1" class="node">
<title>return_taint</title>
<path fill="none" stroke="#7aa2f7" stroke-width="2" d="M303.5,-338.5C303.5,-338.5 28.5,-338.5 28.5,-338.5 22.5,-338.5 16.5,-332.5 16.5,-326.5 16.5,-326.5 16.5,-282.5 16.5,-282.5 16.5,-276.5 22.5,-270.5 28.5,-270.5 28.5,-270.5 303.5,-270.5 303.5,-270.5 309.5,-270.5 315.5,-276.5 315.5,-282.5 315.5,-282.5 315.5,-326.5 315.5,-326.5 315.5,-332.5 309.5,-338.5 303.5,-338.5"/>
<text text-anchor="middle" x="166" y="-323.3" font-family="JetBrains Mono" font-size="14.00" fill="white">Phase 0: Return&#45;value taint</text>
<text text-anchor="middle" x="166" y="-308.3" font-family="JetBrains Mono" font-size="14.00" fill="white">FILE: cmp_linearity.rs</text>
<text text-anchor="middle" x="166" y="-293.3" font-family="JetBrains Mono" font-size="14.00" fill="white">HOOKS: CALL + RETURN</text>
<text text-anchor="middle" x="166" y="-278.3" font-family="JetBrains Mono" font-size="14.00" fill="white">Tags bytes from known oracle addresses</text>
</g>
<!-- oracle_tracker -->
<g id="node2" class="node">
<title>oracle_tracker</title>
<path fill="none" stroke="#7aa2f7" stroke-width="2" d="M369,-216C369,-216 143,-216 143,-216 137,-216 131,-210 131,-204 131,-204 131,-145 131,-145 131,-139 137,-133 143,-133 143,-133 369,-133 369,-133 375,-133 381,-139 381,-145 381,-145 381,-204 381,-204 381,-210 375,-216 369,-216"/>
<text text-anchor="middle" x="256" y="-200.8" font-family="JetBrains Mono" font-size="14.00" fill="white">Phase 1: OracleTracker</text>
<text text-anchor="middle" x="256" y="-185.8" font-family="JetBrains Mono" font-size="14.00" fill="white">FILE: oracle_tracker.rs</text>
<text text-anchor="middle" x="256" y="-170.8" font-family="JetBrains Mono" font-size="14.00" fill="white">HOOKS: CALL, JUMPI, comparison</text>
<text text-anchor="middle" x="256" y="-155.8" font-family="JetBrains Mono" font-size="14.00" fill="white">60&#45;op window:</text>
<text text-anchor="middle" x="256" y="-140.8" font-family="JetBrains Mono" font-size="14.00" fill="white">oracle CALL → cmp → value CALL</text>
</g>
<!-- return_taint&#45;&gt;oracle_tracker -->
<g id="edge3" class="edge">
<title>return_taint&#45;&gt;oracle_tracker</title>
<path fill="none" stroke="#565f89" d="M160.24,-270.38C159.69,-258.28 161.02,-244.9 167,-234 168.95,-230.45 171.21,-227.09 173.72,-223.89"/>
<polygon fill="#565f89" stroke="#565f89" points="176.43,-226.12 180.44,-216.31 171.19,-221.48 176.43,-226.12"/>
<text text-anchor="middle" x="209" y="-237" font-family="JetBrains Mono" font-size="10.00" fill="#565f89"> &#160;feeds proximity</text>
</g>
<!-- return_taint&#45;&gt;oracle_tracker -->
<!-- oracle_selectors -->
<g id="node15" class="node">
<title>oracle_selectors</title>
<path fill="none" stroke="#bb9af7" stroke-width="2" d="M1654,-193.5C1654,-193.5 1516,-193.5 1516,-193.5 1510,-193.5 1504,-187.5 1504,-181.5 1504,-181.5 1504,-167.5 1504,-167.5 1504,-161.5 1510,-155.5 1516,-155.5 1516,-155.5 1654,-155.5 1654,-155.5 1660,-155.5 1666,-161.5 1666,-167.5 1666,-167.5 1666,-181.5 1666,-181.5 1666,-187.5 1660,-193.5 1654,-193.5"/>
<text text-anchor="middle" x="1585" y="-178.3" font-family="JetBrains Mono" font-size="14.00" fill="white">host.oracle_selectors</text>
<text text-anchor="middle" x="1585" y="-163.3" font-family="JetBrains Mono" font-size="14.00" fill="white">from ABI scan</text>
</g>
<!-- return_taint&#45;&gt;oracle_selectors -->
<g id="edge2" class="edge">
<title>return_taint&#45;&gt;oracle_selectors</title>
<path fill="none" stroke="#565f89" d="M283.95,-270.45C297.71,-267.5 311.6,-264.9 325,-263 581.89,-226.48 1241.18,-290.94 1492,-224.5 1512.24,-219.14 1533.02,-208.74 1549.79,-198.89"/>
<polygon fill="#565f89" stroke="#565f89" points="1551.93,-201.69 1558.67,-193.52 1548.3,-195.7 1551.93,-201.69"/>
<text text-anchor="middle" x="1459" y="-237" font-family="JetBrains Mono" font-size="10.00" fill="#565f89"> &#160;reads</text>
</g>
<!-- tracked_oracle_gate -->
<g id="node9" class="node">
<title>tracked_oracle_gate</title>
<path fill="none" stroke="#e0af68" stroke-width="2" d="M1215.5,-75C1215.5,-75 952.5,-75 952.5,-75 946.5,-75 940.5,-69 940.5,-63 940.5,-63 940.5,-51 940.5,-51 940.5,-45 946.5,-39 952.5,-39 952.5,-39 1215.5,-39 1215.5,-39 1221.5,-39 1227.5,-45 1227.5,-51 1227.5,-51 1227.5,-63 1227.5,-63 1227.5,-69 1221.5,-75 1215.5,-75"/>
<text text-anchor="middle" x="1084" y="-53.3" font-family="JetBrains Mono" font-size="14.00" fill="white">ORACLE_GATED_TRANSFER_DETECTED</text>
</g>
<!-- oracle_tracker&#45;&gt;tracked_oracle_gate -->
<g id="edge4" class="edge">
<title>oracle_tracker&#45;&gt;tracked_oracle_gate</title>
<path fill="none" stroke="#565f89" d="M381.31,-156.02C535.14,-134.56 794.88,-98.33 951.8,-76.44"/>
<polygon fill="#565f89" stroke="#565f89" points="952.57,-79.87 961.99,-75.02 951.6,-72.94 952.57,-79.87"/>
</g>
<!-- flashloan -->
<g id="node3" class="node">
<title>flashloan</title>
<path fill="none" stroke="#7aa2f7" stroke-width="2" d="M865.5,-346C865.5,-346 600.5,-346 600.5,-346 594.5,-346 588.5,-340 588.5,-334 588.5,-334 588.5,-275 588.5,-275 588.5,-269 594.5,-263 600.5,-263 600.5,-263 865.5,-263 865.5,-263 871.5,-263 877.5,-269 877.5,-275 877.5,-275 877.5,-334 877.5,-334 877.5,-340 871.5,-346 865.5,-346"/>
<text text-anchor="middle" x="733" y="-330.8" font-family="JetBrains Mono" font-size="14.00" fill="white">Phase 2: FlashloanOracle</text>
<text text-anchor="middle" x="733" y="-315.8" font-family="JetBrains Mono" font-size="14.00" fill="white">FILE: flashloan_oracle.rs</text>
<text text-anchor="middle" x="733" y="-300.8" font-family="JetBrains Mono" font-size="14.00" fill="white">HOOKS: CALL, BALANCE</text>
<text text-anchor="middle" x="733" y="-285.8" font-family="JetBrains Mono" font-size="14.00" fill="white">Multi&#45;CALL sequence:</text>
<text text-anchor="middle" x="733" y="-270.8" font-family="JetBrains Mono" font-size="14.00" fill="white">borrow → oracle read ×2 → value move</text>
</g>
<!-- tracked_flashloan -->
<g id="node10" class="node">
<title>tracked_flashloan</title>
<path fill="none" stroke="#e0af68" stroke-width="2" d="M1815.5,-75C1815.5,-75 1544.5,-75 1544.5,-75 1538.5,-75 1532.5,-69 1532.5,-63 1532.5,-63 1532.5,-51 1532.5,-51 1532.5,-45 1538.5,-39 1544.5,-39 1544.5,-39 1815.5,-39 1815.5,-39 1821.5,-39 1827.5,-45 1827.5,-51 1827.5,-51 1827.5,-63 1827.5,-63 1827.5,-69 1821.5,-75 1815.5,-75"/>
<text text-anchor="middle" x="1680" y="-53.3" font-family="JetBrains Mono" font-size="14.00" fill="white">FLASHLOAN_MANIPULATION_DETECTED</text>
</g>
<!-- flashloan&#45;&gt;tracked_flashloan -->
<g id="edge5" class="edge">
<title>flashloan&#45;&gt;tracked_flashloan</title>
<path fill="none" stroke="#565f89" d="M877.78,-264.24C880.54,-263.79 883.28,-263.38 886,-263 1088.07,-234.69 1602,-273.78 1804,-245 1838.64,-240.06 1858.73,-252.27 1880,-224.5 1906.89,-189.39 1905.83,-160.89 1880,-125 1875.83,-119.2 1802.5,-95.6 1745.83,-78.04"/>
<polygon fill="#565f89" stroke="#565f89" points="1746.76,-74.66 1736.18,-75.06 1744.7,-81.35 1746.76,-74.66"/>
</g>
<!-- staleness -->
<g id="node4" class="node">
<title>staleness</title>
<path fill="none" stroke="#7aa2f7" stroke-width="2" d="M1132.5,-346C1132.5,-346 907.5,-346 907.5,-346 901.5,-346 895.5,-340 895.5,-334 895.5,-334 895.5,-275 895.5,-275 895.5,-269 901.5,-263 907.5,-263 907.5,-263 1132.5,-263 1132.5,-263 1138.5,-263 1144.5,-269 1144.5,-275 1144.5,-275 1144.5,-334 1144.5,-334 1144.5,-340 1138.5,-346 1132.5,-346"/>
<text text-anchor="middle" x="1020" y="-330.8" font-family="JetBrains Mono" font-size="14.00" fill="white">Phase 3: OracleStaleness</text>
<text text-anchor="middle" x="1020" y="-315.8" font-family="JetBrains Mono" font-size="14.00" fill="white">FILE: oracle_staleness.rs</text>
<text text-anchor="middle" x="1020" y="-300.8" font-family="JetBrains Mono" font-size="14.00" fill="white">HOOKS: TIMESTAMP, CALL, JUMPI</text>
<text text-anchor="middle" x="1020" y="-285.8" font-family="JetBrains Mono" font-size="14.00" fill="white">50&#45;op window after oracle CALL</text>
<text text-anchor="middle" x="1020" y="-270.8" font-family="JetBrains Mono" font-size="14.00" fill="white">missing TIMESTAMP check → fire</text>
</g>
<!-- tracked_stale -->
<g id="node11" class="node">
<title>tracked_stale</title>
<path fill="none" stroke="#e0af68" stroke-width="2" d="M2036.5,-75C2036.5,-75 1857.5,-75 1857.5,-75 1851.5,-75 1845.5,-69 1845.5,-63 1845.5,-63 1845.5,-51 1845.5,-51 1845.5,-45 1851.5,-39 1857.5,-39 1857.5,-39 2036.5,-39 2036.5,-39 2042.5,-39 2048.5,-45 2048.5,-51 2048.5,-51 2048.5,-63 2048.5,-63 2048.5,-69 2042.5,-75 2036.5,-75"/>
<text text-anchor="middle" x="1947" y="-53.3" font-family="JetBrains Mono" font-size="14.00" fill="white">STALE_ORACLE_DETECTED</text>
</g>
<!-- staleness&#45;&gt;tracked_stale -->
<g id="edge6" class="edge">
<title>staleness&#45;&gt;tracked_stale</title>
<path fill="none" stroke="#565f89" d="M1144.57,-264.65C1147.73,-264.05 1150.88,-263.5 1154,-263 1196.2,-256.26 1891.25,-273.6 1923,-245 1967.52,-204.9 1960.64,-126.52 1953.11,-85.12"/>
<polygon fill="#565f89" stroke="#565f89" points="1956.52,-84.34 1951.16,-75.2 1949.65,-85.69 1956.52,-84.34"/>
</g>
<!-- empty_state -->
<g id="node5" class="node">
<title>empty_state</title>
<path fill="none" stroke="#7aa2f7" stroke-width="2" d="M1467.5,-346C1467.5,-346 1174.5,-346 1174.5,-346 1168.5,-346 1162.5,-340 1162.5,-334 1162.5,-334 1162.5,-275 1162.5,-275 1162.5,-269 1168.5,-263 1174.5,-263 1174.5,-263 1467.5,-263 1467.5,-263 1473.5,-263 1479.5,-269 1479.5,-275 1479.5,-275 1479.5,-334 1479.5,-334 1479.5,-340 1473.5,-346 1467.5,-346"/>
<text text-anchor="middle" x="1321" y="-330.8" font-family="JetBrains Mono" font-size="14.00" fill="white">Phase 4: EmptyStateGuard</text>
<text text-anchor="middle" x="1321" y="-315.8" font-family="JetBrains Mono" font-size="14.00" fill="white">FILE: empty_state_guard.rs</text>
<text text-anchor="middle" x="1321" y="-300.8" font-family="JetBrains Mono" font-size="14.00" fill="white">HOOKS: CALL, SLOAD, JUMPI</text>
<text text-anchor="middle" x="1321" y="-285.8" font-family="JetBrains Mono" font-size="14.00" fill="white">40 ops after deposit/mint/withdraw/redeem</text>
<text text-anchor="middle" x="1321" y="-270.8" font-family="JetBrains Mono" font-size="14.00" fill="white">no SLOAD+JUMPI → fire</text>
</g>
<!-- tracked_empty -->
<g id="node12" class="node">
<title>tracked_empty</title>
<path fill="none" stroke="#e0af68" stroke-width="2" d="M2291,-75C2291,-75 2079,-75 2079,-75 2073,-75 2067,-69 2067,-63 2067,-63 2067,-51 2067,-51 2067,-45 2073,-39 2079,-39 2079,-39 2291,-39 2291,-39 2297,-39 2303,-45 2303,-51 2303,-51 2303,-63 2303,-63 2303,-69 2297,-75 2291,-75"/>
<text text-anchor="middle" x="2185" y="-53.3" font-family="JetBrains Mono" font-size="14.00" fill="white">EMPTY_STATE_GUARD_MISSING</text>
</g>
<!-- empty_state&#45;&gt;tracked_empty -->
<g id="edge7" class="edge">
<title>empty_state&#45;&gt;tracked_empty</title>
<path fill="none" stroke="#565f89" d="M1479.77,-299.75C1640.52,-294.04 1877.01,-279.86 1961,-245 2048.95,-208.5 2128.51,-124.78 2164.58,-82.87"/>
<polygon fill="#565f89" stroke="#565f89" points="2167.4,-84.95 2171.21,-75.07 2162.07,-80.42 2167.4,-84.95"/>
</g>
<!-- dos -->
<g id="node6" class="node">
<title>dos</title>
<path fill="none" stroke="#7aa2f7" stroke-width="2" d="M558,-346C558,-346 346,-346 346,-346 340,-346 334,-340 334,-334 334,-334 334,-275 334,-275 334,-269 340,-263 346,-263 346,-263 558,-263 558,-263 564,-263 570,-269 570,-275 570,-275 570,-334 570,-334 570,-340 564,-346 558,-346"/>
<text text-anchor="middle" x="452" y="-330.8" font-family="JetBrains Mono" font-size="14.00" fill="white">Phase 5: DoSDetector</text>
<text text-anchor="middle" x="452" y="-315.8" font-family="JetBrains Mono" font-size="14.00" fill="white">FILE: dos_detector.rs</text>
<text text-anchor="middle" x="452" y="-300.8" font-family="JetBrains Mono" font-size="14.00" fill="white">HOOKS: SLOAD, REVERT</text>
<text text-anchor="middle" x="452" y="-285.8" font-family="JetBrains Mono" font-size="14.00" fill="white">SLOAD before REVERT — is slot</text>
<text text-anchor="middle" x="452" y="-270.8" font-family="JetBrains Mono" font-size="14.00" fill="white">in host.tainted_storage?</text>
</g>
<!-- tracked_dos -->
<g id="node13" class="node">
<title>tracked_dos</title>
<path fill="none" stroke="#e0af68" stroke-width="2" d="M1502.5,-75C1502.5,-75 1257.5,-75 1257.5,-75 1251.5,-75 1245.5,-69 1245.5,-63 1245.5,-63 1245.5,-51 1245.5,-51 1245.5,-45 1251.5,-39 1257.5,-39 1257.5,-39 1502.5,-39 1502.5,-39 1508.5,-39 1514.5,-45 1514.5,-51 1514.5,-51 1514.5,-63 1514.5,-63 1514.5,-69 1508.5,-75 1502.5,-75"/>
<text text-anchor="middle" x="1380" y="-53.3" font-family="JetBrains Mono" font-size="14.00" fill="white">DOS_STATE_DEPENDENT_DETECTED</text>
</g>
<!-- dos&#45;&gt;tracked_dos -->
<g id="edge8" class="edge">
<title>dos&#45;&gt;tracked_dos</title>
<path fill="none" stroke="#565f89" d="M570.03,-264.62C573.04,-264.03 576.03,-263.49 579,-263 648.99,-251.53 1807.99,-277.6 1855,-224.5 1884.31,-191.39 1885.36,-157.15 1855,-125 1829.71,-98.22 1560.18,-112.94 1524,-106 1492.42,-99.94 1458.23,-88.75 1431.1,-78.7"/>
<polygon fill="#565f89" stroke="#565f89" points="1432.03,-75.31 1421.43,-75.06 1429.56,-81.86 1432.03,-75.31"/>
</g>
<!-- tainted_storage -->
<g id="node14" class="node">
<title>tainted_storage</title>
<path fill="none" stroke="#bb9af7" stroke-width="2" d="M1831.5,-193.5C1831.5,-193.5 1696.5,-193.5 1696.5,-193.5 1690.5,-193.5 1684.5,-187.5 1684.5,-181.5 1684.5,-181.5 1684.5,-167.5 1684.5,-167.5 1684.5,-161.5 1690.5,-155.5 1696.5,-155.5 1696.5,-155.5 1831.5,-155.5 1831.5,-155.5 1837.5,-155.5 1843.5,-161.5 1843.5,-167.5 1843.5,-167.5 1843.5,-181.5 1843.5,-181.5 1843.5,-187.5 1837.5,-193.5 1831.5,-193.5"/>
<text text-anchor="middle" x="1764" y="-178.3" font-family="JetBrains Mono" font-size="14.00" fill="white">host.tainted_storage</text>
<text text-anchor="middle" x="1764" y="-163.3" font-family="JetBrains Mono" font-size="14.00" fill="white">(013 Phase 3)</text>
</g>
<!-- dos&#45;&gt;tainted_storage -->
<g id="edge1" class="edge">
<title>dos&#45;&gt;tainted_storage</title>
<path fill="none" stroke="#565f89" d="M570.04,-264.69C573.05,-264.08 576.04,-263.51 579,-263 819.11,-221.31 1440.07,-289.31 1675,-224.5 1694.51,-219.12 1714.41,-208.71 1730.43,-198.87"/>
<polygon fill="#565f89" stroke="#565f89" points="1732.34,-201.81 1738.91,-193.5 1728.59,-195.9 1732.34,-201.81"/>
<text text-anchor="middle" x="1655.5" y="-237" font-family="JetBrains Mono" font-size="10.00" fill="#565f89"> &#160;reads 013</text>
</g>
<!-- inj_tainted_call -->
<g id="node7" class="node">
<title>inj_tainted_call</title>
<path fill="none" stroke="#e0af68" stroke-width="2" d="M2819.5,-75C2819.5,-75 2584.5,-75 2584.5,-75 2578.5,-75 2572.5,-69 2572.5,-63 2572.5,-63 2572.5,-51 2572.5,-51 2572.5,-45 2578.5,-39 2584.5,-39 2584.5,-39 2819.5,-39 2819.5,-39 2825.5,-39 2831.5,-45 2831.5,-51 2831.5,-51 2831.5,-63 2831.5,-63 2831.5,-69 2825.5,-75 2819.5,-75"/>
<text text-anchor="middle" x="2702" y="-53.3" font-family="JetBrains Mono" font-size="14.00" fill="white">INJECTION_TAINTED_CALL_TARGET</text>
</g>
<!-- inj_tainted_calldata -->
<g id="node8" class="node">
<title>inj_tainted_calldata</title>
<path fill="none" stroke="#e0af68" stroke-width="2" d="M2542.5,-75C2542.5,-75 2333.5,-75 2333.5,-75 2327.5,-75 2321.5,-69 2321.5,-63 2321.5,-63 2321.5,-51 2321.5,-51 2321.5,-45 2327.5,-39 2333.5,-39 2333.5,-39 2542.5,-39 2542.5,-39 2548.5,-39 2554.5,-45 2554.5,-51 2554.5,-51 2554.5,-63 2554.5,-63 2554.5,-69 2548.5,-75 2542.5,-75"/>
<text text-anchor="middle" x="2438" y="-53.3" font-family="JetBrains Mono" font-size="14.00" fill="white">INJECTION_TAINTED_CALLDATA</text>
</g>
</g>
</svg>
